<mxfile host="app.diagrams.net" agent="Mozilla/5.0 (X11; Linux x86_64; rv:138.0) Gecko/20100101 Firefox/138.0" version="28.2.8">
  <diagram name="Page-1" id="PWgGEMt2-ar_6GPqJncH">
    <mxGraphModel dx="786" dy="481" grid="1" gridSize="10" guides="1" tooltips="1" connect="1" arrows="1" fold="1" page="1" pageScale="1" pageWidth="850" pageHeight="1100" math="0" shadow="0">
      <root>
        <mxCell id="0" />
        <mxCell id="1" parent="0" />
        <mxCell id="k0j1nxhFFHBIF1v-eqWM-1" value="foo" style="shape=umlActor;verticalLabelPosition=bottom;verticalAlign=top;html=1;outlineConnect=0;" vertex="1" parent="1">
          <mxGeometry x="170" y="115" width="95" height="190" as="geometry" />
        </mxCell>
        <mxCell id="k0j1nxhFFHBIF1v-eqWM-2" value="&lt;div&gt;bar&lt;/div&gt;" style="shape=umlActor;verticalLabelPosition=bottom;verticalAlign=top;html=1;outlineConnect=0;" vertex="1" parent="1">
          <mxGeometry x="570" y="115" width="90" height="190" as="geometry" />
        </mxCell>
        <mxCell id="k0j1nxhFFHBIF1v-eqWM-7" value="" style="endArrow=classic;html=1;rounded=0;entryX=0;entryY=0.25;entryDx=0;entryDy=0;exitX=0.5;exitY=0;exitDx=0;exitDy=0;" edge="1" parent="1" source="k0j1nxhFFHBIF1v-eqWM-28" target="k0j1nxhFFHBIF1v-eqWM-32">
          <mxGeometry width="50" height="50" relative="1" as="geometry">
            <mxPoint x="300" y="210" as="sourcePoint" />
            <mxPoint x="640" y="30" as="targetPoint" />
            <Array as="points" />
          </mxGeometry>
        </mxCell>
        <mxCell id="k0j1nxhFFHBIF1v-eqWM-8" value="announce publicKey from foo to bar" style="edgeLabel;html=1;align=center;verticalAlign=middle;resizable=0;points=[];" vertex="1" connectable="0" parent="k0j1nxhFFHBIF1v-eqWM-7">
          <mxGeometry x="-0.1039" relative="1" as="geometry">
            <mxPoint x="68" y="-40" as="offset" />
          </mxGeometry>
        </mxCell>
        <mxCell id="k0j1nxhFFHBIF1v-eqWM-9" value="" style="endArrow=classic;html=1;rounded=0;exitX=0;exitY=0;exitDx=0;exitDy=0;entryX=1;entryY=0.75;entryDx=0;entryDy=0;" edge="1" parent="1" source="k0j1nxhFFHBIF1v-eqWM-29" target="k0j1nxhFFHBIF1v-eqWM-25">
          <mxGeometry width="50" height="50" relative="1" as="geometry">
            <mxPoint x="540" y="210" as="sourcePoint" />
            <mxPoint x="200" y="30" as="targetPoint" />
          </mxGeometry>
        </mxCell>
        <mxCell id="k0j1nxhFFHBIF1v-eqWM-10" value="announce publicKey from bar to foo" style="edgeLabel;html=1;align=center;verticalAlign=middle;resizable=0;points=[];" vertex="1" connectable="0" parent="k0j1nxhFFHBIF1v-eqWM-9">
          <mxGeometry x="-0.6171" y="-4" relative="1" as="geometry">
            <mxPoint x="-156" y="-82" as="offset" />
          </mxGeometry>
        </mxCell>
        <mxCell id="k0j1nxhFFHBIF1v-eqWM-13" value="&lt;span style=&quot;background-color: light-dark(#ffffff, var(--ge-dark-color, #121212));&quot;&gt;derive synchronous key from asynchronous key pair&lt;/span&gt;" style="shape=cylinder3;whiteSpace=wrap;html=1;boundedLbl=1;backgroundOutline=1;size=15;" vertex="1" parent="1">
          <mxGeometry x="40" y="280" width="60" height="80" as="geometry" />
        </mxCell>
        <mxCell id="k0j1nxhFFHBIF1v-eqWM-14" value="&lt;span style=&quot;background-color: light-dark(#ffffff, var(--ge-dark-color, #121212));&quot;&gt;derive synchronous key from asynchronous key pair&lt;/span&gt;" style="shape=cylinder3;whiteSpace=wrap;html=1;boundedLbl=1;backgroundOutline=1;size=15;" vertex="1" parent="1">
          <mxGeometry x="740" y="280" width="60" height="80" as="geometry" />
        </mxCell>
        <mxCell id="k0j1nxhFFHBIF1v-eqWM-15" value="" style="endArrow=classic;html=1;rounded=0;exitX=0;exitY=0.25;exitDx=0;exitDy=0;entryX=0.5;entryY=0;entryDx=0;entryDy=0;entryPerimeter=0;" edge="1" parent="1" source="k0j1nxhFFHBIF1v-eqWM-25" target="k0j1nxhFFHBIF1v-eqWM-13">
          <mxGeometry width="50" height="50" relative="1" as="geometry">
            <mxPoint x="140" y="30" as="sourcePoint" />
            <mxPoint x="450" y="350" as="targetPoint" />
          </mxGeometry>
        </mxCell>
        <mxCell id="k0j1nxhFFHBIF1v-eqWM-16" value="" style="endArrow=classic;html=1;rounded=0;exitX=0;exitY=0.5;exitDx=0;exitDy=0;entryX=0.855;entryY=0;entryDx=0;entryDy=4.35;entryPerimeter=0;" edge="1" parent="1" source="k0j1nxhFFHBIF1v-eqWM-27" target="k0j1nxhFFHBIF1v-eqWM-13">
          <mxGeometry width="50" height="50" relative="1" as="geometry">
            <mxPoint x="140" y="210" as="sourcePoint" />
            <mxPoint x="450" y="350" as="targetPoint" />
          </mxGeometry>
        </mxCell>
        <mxCell id="k0j1nxhFFHBIF1v-eqWM-17" value="" style="endArrow=classic;html=1;rounded=0;exitX=1;exitY=0.75;exitDx=0;exitDy=0;entryX=0.145;entryY=0;entryDx=0;entryDy=4.35;entryPerimeter=0;" edge="1" parent="1" source="k0j1nxhFFHBIF1v-eqWM-30" target="k0j1nxhFFHBIF1v-eqWM-14">
          <mxGeometry width="50" height="50" relative="1" as="geometry">
            <mxPoint x="700" y="210" as="sourcePoint" />
            <mxPoint x="770" y="280" as="targetPoint" />
          </mxGeometry>
        </mxCell>
        <mxCell id="k0j1nxhFFHBIF1v-eqWM-18" value="" style="endArrow=classic;html=1;rounded=0;exitX=1;exitY=1;exitDx=0;exitDy=0;entryX=0.5;entryY=0;entryDx=0;entryDy=0;entryPerimeter=0;" edge="1" parent="1" source="k0j1nxhFFHBIF1v-eqWM-32" target="k0j1nxhFFHBIF1v-eqWM-14">
          <mxGeometry width="50" height="50" relative="1" as="geometry">
            <mxPoint x="700" y="30" as="sourcePoint" />
            <mxPoint x="450" y="350" as="targetPoint" />
          </mxGeometry>
        </mxCell>
        <mxCell id="k0j1nxhFFHBIF1v-eqWM-19" value="synchronous bar-foo key" style="sketch=0;html=1;verticalAlign=top;labelPosition=center;verticalLabelPosition=bottom;align=center;spacingTop=-6;fontSize=11;fontStyle=1;fontColor=#999999;shape=image;aspect=fixed;imageAspect=0;image=data:image/svg+xml,PHN2ZyB4bWxucz0iaHR0cDovL3d3dy53My5vcmcvMjAwMC9zdmciIGhlaWdodD0iMTkuOTg2IiB3aWR0aD0iMTUuNzIzIiB2aWV3Qm94PSIwIDAgMTUuNzIzIDE5Ljk4NiI+JiN4YTsJPHBhdGggZmlsbD0iIzQyODVmNCIgZD0iTTMuNjM0IDE0LjU4NnYtMy43NWMwLS4xNS0uMjktLjM0LS40OS0uNDNhNS40NiA1LjQ2IDAgMSAxIDcuNDQtNi44MyA1LjQgNS40IDAgMCAxLTIuNzMgNi43OS44Mi44MiAwIDAgMC0uNTQuOXY4LjcyaC0zLjY4di0xLjc1SC4wMjR2LTMuNjV6bTMuNjQtOS4xMWExLjgyIDEuODIgMCAxIDAtMy42NC0uMDYgMS44MyAxLjgzIDAgMCAwIDEuOCAxLjg1aDBhMS44NCAxLjg0IDAgMCAwIDEuODMtMS43OXoiLz4mI3hhOwk8cGF0aCBmaWxsPSIjNjY5ZGY2IiBkPSJNMTUuMzc0IDMuNTc2YTUuNDQgNS40NCAwIDAgMC02LjMyLTMuNDQgNS40NCA1LjQ0IDAgMCAxIDEuMTMgMTAuMjMuODQuODQgMCAwIDAtLjU1Ljl2OC43MmgyLjQzdi04LjcxYS44My44MyAwIDAgMSAuNTUtLjkgNS40IDUuNCAwIDAgMCAyLjc2LTYuOHoiLz4mI3hhOzwvc3ZnPg==;" vertex="1" parent="1">
          <mxGeometry x="753" y="400" width="34" height="42" as="geometry" />
        </mxCell>
        <mxCell id="k0j1nxhFFHBIF1v-eqWM-20" value="synchronous foo-bar key" style="sketch=0;html=1;verticalAlign=top;labelPosition=center;verticalLabelPosition=bottom;align=center;spacingTop=-6;fontSize=11;fontStyle=1;fontColor=#999999;shape=image;aspect=fixed;imageAspect=0;image=data:image/svg+xml,PHN2ZyB4bWxucz0iaHR0cDovL3d3dy53My5vcmcvMjAwMC9zdmciIGhlaWdodD0iMTkuOTg2IiB3aWR0aD0iMTUuNzIzIiB2aWV3Qm94PSIwIDAgMTUuNzIzIDE5Ljk4NiI+JiN4YTsJPHBhdGggZmlsbD0iIzQyODVmNCIgZD0iTTMuNjM0IDE0LjU4NnYtMy43NWMwLS4xNS0uMjktLjM0LS40OS0uNDNhNS40NiA1LjQ2IDAgMSAxIDcuNDQtNi44MyA1LjQgNS40IDAgMCAxLTIuNzMgNi43OS44Mi44MiAwIDAgMC0uNTQuOXY4LjcyaC0zLjY4di0xLjc1SC4wMjR2LTMuNjV6bTMuNjQtOS4xMWExLjgyIDEuODIgMCAxIDAtMy42NC0uMDYgMS44MyAxLjgzIDAgMCAwIDEuOCAxLjg1aDBhMS44NCAxLjg0IDAgMCAwIDEuODMtMS43OXoiLz4mI3hhOwk8cGF0aCBmaWxsPSIjNjY5ZGY2IiBkPSJNMTUuMzc0IDMuNTc2YTUuNDQgNS40NCAwIDAgMC02LjMyLTMuNDQgNS40NCA1LjQ0IDAgMCAxIDEuMTMgMTAuMjMuODQuODQgMCAwIDAtLjU1Ljl2OC43MmgyLjQzdi04LjcxYS44My44MyAwIDAgMSAuNTUtLjkgNS40IDUuNCAwIDAgMCAyLjc2LTYuOHoiLz4mI3hhOzwvc3ZnPg==;" vertex="1" parent="1">
          <mxGeometry x="53" y="400" width="34" height="42" as="geometry" />
        </mxCell>
        <mxCell id="k0j1nxhFFHBIF1v-eqWM-21" value="" style="shape=flexArrow;endArrow=classic;startArrow=classic;html=1;rounded=0;entryX=0;entryY=0.5;entryDx=0;entryDy=0;exitX=1;exitY=0.5;exitDx=0;exitDy=0;" edge="1" parent="1" source="k0j1nxhFFHBIF1v-eqWM-20" target="k0j1nxhFFHBIF1v-eqWM-19">
          <mxGeometry width="100" height="100" relative="1" as="geometry">
            <mxPoint x="160" y="420" as="sourcePoint" />
            <mxPoint x="480" y="320" as="targetPoint" />
          </mxGeometry>
        </mxCell>
        <mxCell id="k0j1nxhFFHBIF1v-eqWM-22" value="foo&#39;s privateKey + bar&#39;s publicKey result in the identical JasonWebKey as bar&#39;s privateKey + foo&#39;s publicKey" style="edgeLabel;html=1;align=center;verticalAlign=middle;resizable=0;points=[];" vertex="1" connectable="0" parent="k0j1nxhFFHBIF1v-eqWM-21">
          <mxGeometry x="0.009" y="-2" relative="1" as="geometry">
            <mxPoint as="offset" />
          </mxGeometry>
        </mxCell>
        <mxCell id="k0j1nxhFFHBIF1v-eqWM-25" value="publicKey bar" style="shape=image;editableCssRules=.*;verticalLabelPosition=bottom;labelBackgroundColor=default;verticalAlign=top;aspect=fixed;imageAspect=0;image=data:image/svg+xml,PHN2ZyB4bWxucz0iaHR0cDovL3d3dy53My5vcmcvMjAwMC9zdmciIHZpZXdCb3g9Ii0wLjUgLTAuNSAyOC4wMDIgMjgiIGhlaWdodD0iMjgiIHdpZHRoPSIyOC4wMDIiPiYjeGE7CSAgPHN0eWxlIHR5cGU9InRleHQvY3NzIj4mI3hhOwkJLnN0MHtzdG9wLWNvbG9yOiMwMGNlYWM7fSYjeGE7CQkuc3Qxe3N0b3AtY29sb3I6IzA3ODM4Zjt9JiN4YTsJICA8L3N0eWxlPiYjeGE7CTxkZWZzPiYjeGE7CQk8bGluZWFyR3JhZGllbnQgZ3JhZGllbnRVbml0cz0idXNlclNwYWNlT25Vc2UiIHkyPSIyNS4zMSIgeDI9IjIzLjQ1NCIgeTE9IjMuNDc0IiB4MT0iMi4wMzkiIGlkPSJBIj4mI3hhOwkJCTxzdG9wIGNsYXNzPSJzdDAiLz4mI3hhOwkJCTxzdG9wIGNsYXNzPSJzdDEiIG9mZnNldD0iMSIvPiYjeGE7CQk8L2xpbmVhckdyYWRpZW50PiYjeGE7CTwvZGVmcz4mI3hhOwk8cGF0aCBmaWxsPSJ1cmwoI0EpIiBkPSJNMjcuMDYzIDIwLjkyNGMuMjkzLjI5My40MzguNjIxLjQzOC45ODd2NC4xNjVjMCAuOTQ5LS40NzQgMS40MjQtMS40MjYgMS40MjRoLTQuMTYzYy0uMTg2LS4wMDItLjM2OS0uMDQyLS41MzktLjExN3MtLjMyMi0uMTg1LS40NDgtLjMyMWwtLjk4Ny0uOTg1aC0yLjI0NGExLjUzIDEuNTMgMCAwIDEtMS4wNDMtLjM4NGMtLjEyOC0uMTMtLjIyNy0uMjg0LS4yOTMtLjQ1NHMtLjA5Ni0uMzUxLS4wODktLjUzM3YtMS40MjRoLTEuMzdhMS41MyAxLjUzIDAgMCAxLTEuMDQyLS4zODRjLS4xMjgtLjEzLS4yMjgtLjI4NC0uMjk0LS40NTNzLS4wOTctLjM1MS0uMDktLjUzMnYtMS40MjZoLTEuMzdjLS45NSAwLTEuNDI2LS40NzMtMS40MjYtMS40MjRWMTYuODdsLS41NDctLjYwM0g3Ljg4NGMtMS4xMzEgMC0yLjIwOS0uMjE5LTMuMjMyLS42NThhOC40OCA4LjQ4IDAgMCAxLTIuNjg1LTEuODA4Yy0uNzcxLS43Ny0xLjM4Ni0xLjY4Mi0xLjgxMS0yLjY4NUE4LjEyIDguMTIgMCAwIDEtLjUgNy44ODRjMC0xLjE3LjIxOS0yLjI0Ni42NTgtMy4yMzMuNDI1LTEuMDAzIDEuMDM5LTEuOTE0IDEuODA4LTIuNjg1UzMuNjUuNTgyIDQuNjU0LjE1OEE4LjEyIDguMTIgMCAwIDEgNy44ODUtLjVjMS4xNjggMCAyLjI0NC4yMTkgMy4yMzIuNjU4IDEuMDI0LjQzOCAxLjkxOCAxLjA0IDIuNjg2IDEuODA2czEuMzY4IDEuNjY0IDEuODA2IDIuNjg2Yy40MzguOTg3LjY1OSAyLjA2NC42NTkgMy4yMzN2Mi4yNDV6bS0yLjM1NyAxLjUzNEwxMy45MTIgMTEuNjY0YTEuMzYgMS4zNiAwIDAgMS0uMzIxLS40NDdjLS4wNzUtLjE2OS0uMTE1LS4zNTItLjExOC0uNTM4VjcuODg0YzAtLjc2OC0uMTQ2LTEuNDgtLjQzOC0yLjEzOC0uMjgtLjY3Ni0uNjktMS4yOS0xLjIwNy0xLjgwOGE1LjYgNS42IDAgMCAwLTEuODA2LTEuMjA2IDUuMiA1LjIgMCAwIDAtMi4xMzktLjQzOGMtLjc2NiAwLTEuNDk3LjE0Ny0yLjE5Mi40MzhhNS43OCA1Ljc4IDAgMCAwLTEuNzUzIDEuMjA2IDUuNjEgNS42MSAwIDAgMC0xLjIwNSAxLjgwOGMtLjI5My42NTgtLjQzOCAxLjM2OS0uNDM4IDIuMTM4cy4xNDYgMS40OTcuNDM4IDIuMTkyYTUuNzkgNS43OSAwIDAgMCAxLjIwNiAxLjc1NGMuNTEuNTEgMS4wOTQuOTEyIDEuNzU0IDEuMjA1LjY5My4yOTMgMS40MjQuNDM4IDIuMTkyLjQzOGgyLjc5M2MuMzY3IDAgLjY5NC4xNDcuOTg3LjQzOGwxLjQyNCAxLjQyNmMuMTI0LjEyLjIyMi4yNjUuMjg4LjQyNWExLjI3IDEuMjcgMCAwIDEgLjA5Ni41MDR2MS40MjZoMS40MjZjLjkxMiAwIDEuMzY4LjQ1NiAxLjM2OCAxLjM2OHYxLjQyNWgxLjQyNmMuNDAzIDAgLjczMS4xMjguOTg3LjM4NC4yOTEuMjU2LjQzOC42MDMuNDM4IDEuMDQxdjEuMzY5aDEuMzY5Yy4zNjUgMCAuNjk0LjE0Ni45ODcuNDM4bC45ODUuOTg3aDIuMjQ2ek03Ljg4NCA1LjA4OGMuNzY4IDAgMS40MjYuMjc0IDEuOTczLjgyMnMuODI0IDEuMjA1LjgyNCAxLjk3M2EyLjY5IDIuNjkgMCAwIDEtLjgyNCAxLjk3MyAyLjY5IDIuNjkgMCAwIDEtMS45NzMuODIyIDIuNjkgMi42OSAwIDAgMS0xLjk3My0uODI0IDIuNjkgMi42OSAwIDAgMS0uODE5LTEuOTcxYzAtLjc2OC4yNzQtMS40MjYuODIyLTEuOTczYTIuNjkgMi42OSAwIDAgMSAxLjk3MS0uODIyeiIvPiYjeGE7PC9zdmc+;" vertex="1" parent="1">
          <mxGeometry x="160" y="10" width="50" height="50" as="geometry" />
        </mxCell>
        <mxCell id="k0j1nxhFFHBIF1v-eqWM-27" value="privateKey" style="shape=image;editableCssRules=.*;verticalLabelPosition=bottom;labelBackgroundColor=default;verticalAlign=top;aspect=fixed;imageAspect=0;image=data:image/svg+xml,PHN2ZyB4bWxucz0iaHR0cDovL3d3dy53My5vcmcvMjAwMC9zdmciIHZpZXdCb3g9Ii0wLjUgLTAuNSAyOC4wMDIgMjgiIGhlaWdodD0iMjgiIHdpZHRoPSIyOC4wMDIiPiYjeGE7CSAgPHN0eWxlIHR5cGU9InRleHQvY3NzIj4uc3QwIHsgc3RvcC1jb2xvcjogcmdiKDkxLCAxMTUsIDEzOSk7IH0gLnN0MSB7IHN0b3AtY29sb3I6IHJnYigzNCwgNTMsIDcyKTsgfSA8L3N0eWxlPiYjeGE7CTxkZWZzPiYjeGE7CQk8bGluZWFyR3JhZGllbnQgZ3JhZGllbnRVbml0cz0idXNlclNwYWNlT25Vc2UiIHkyPSIyNS4zMSIgeDI9IjIzLjQ1NCIgeTE9IjMuNDc0IiB4MT0iMi4wMzkiIGlkPSJBIj4mI3hhOwkJCTxzdG9wIGNsYXNzPSJzdDAiLz4mI3hhOwkJCTxzdG9wIGNsYXNzPSJzdDEiIG9mZnNldD0iMSIvPiYjeGE7CQk8L2xpbmVhckdyYWRpZW50PiYjeGE7CTwvZGVmcz4mI3hhOwk8cGF0aCBmaWxsPSJ1cmwoI0EpIiBkPSJNMjcuMDYzIDIwLjkyNGMuMjkzLjI5My40MzguNjIxLjQzOC45ODd2NC4xNjVjMCAuOTQ5LS40NzQgMS40MjQtMS40MjYgMS40MjRoLTQuMTYzYy0uMTg2LS4wMDItLjM2OS0uMDQyLS41MzktLjExN3MtLjMyMi0uMTg1LS40NDgtLjMyMWwtLjk4Ny0uOTg1aC0yLjI0NGExLjUzIDEuNTMgMCAwIDEtMS4wNDMtLjM4NGMtLjEyOC0uMTMtLjIyNy0uMjg0LS4yOTMtLjQ1NHMtLjA5Ni0uMzUxLS4wODktLjUzM3YtMS40MjRoLTEuMzdhMS41MyAxLjUzIDAgMCAxLTEuMDQyLS4zODRjLS4xMjgtLjEzLS4yMjgtLjI4NC0uMjk0LS40NTNzLS4wOTctLjM1MS0uMDktLjUzMnYtMS40MjZoLTEuMzdjLS45NSAwLTEuNDI2LS40NzMtMS40MjYtMS40MjRWMTYuODdsLS41NDctLjYwM0g3Ljg4NGMtMS4xMzEgMC0yLjIwOS0uMjE5LTMuMjMyLS42NThhOC40OCA4LjQ4IDAgMCAxLTIuNjg1LTEuODA4Yy0uNzcxLS43Ny0xLjM4Ni0xLjY4Mi0xLjgxMS0yLjY4NUE4LjEyIDguMTIgMCAwIDEtLjUgNy44ODRjMC0xLjE3LjIxOS0yLjI0Ni42NTgtMy4yMzMuNDI1LTEuMDAzIDEuMDM5LTEuOTE0IDEuODA4LTIuNjg1UzMuNjUuNTgyIDQuNjU0LjE1OEE4LjEyIDguMTIgMCAwIDEgNy44ODUtLjVjMS4xNjggMCAyLjI0NC4yMTkgMy4yMzIuNjU4IDEuMDI0LjQzOCAxLjkxOCAxLjA0IDIuNjg2IDEuODA2czEuMzY4IDEuNjY0IDEuODA2IDIuNjg2Yy40MzguOTg3LjY1OSAyLjA2NC42NTkgMy4yMzN2Mi4yNDV6bS0yLjM1NyAxLjUzNEwxMy45MTIgMTEuNjY0YTEuMzYgMS4zNiAwIDAgMS0uMzIxLS40NDdjLS4wNzUtLjE2OS0uMTE1LS4zNTItLjExOC0uNTM4VjcuODg0YzAtLjc2OC0uMTQ2LTEuNDgtLjQzOC0yLjEzOC0uMjgtLjY3Ni0uNjktMS4yOS0xLjIwNy0xLjgwOGE1LjYgNS42IDAgMCAwLTEuODA2LTEuMjA2IDUuMiA1LjIgMCAwIDAtMi4xMzktLjQzOGMtLjc2NiAwLTEuNDk3LjE0Ny0yLjE5Mi40MzhhNS43OCA1Ljc4IDAgMCAwLTEuNzUzIDEuMjA2IDUuNjEgNS42MSAwIDAgMC0xLjIwNSAxLjgwOGMtLjI5My42NTgtLjQzOCAxLjM2OS0uNDM4IDIuMTM4cy4xNDYgMS40OTcuNDM4IDIuMTkyYTUuNzkgNS43OSAwIDAgMCAxLjIwNiAxLjc1NGMuNTEuNTEgMS4wOTQuOTEyIDEuNzU0IDEuMjA1LjY5My4yOTMgMS40MjQuNDM4IDIuMTkyLjQzOGgyLjc5M2MuMzY3IDAgLjY5NC4xNDcuOTg3LjQzOGwxLjQyNCAxLjQyNmMuMTI0LjEyLjIyMi4yNjUuMjg4LjQyNWExLjI3IDEuMjcgMCAwIDEgLjA5Ni41MDR2MS40MjZoMS40MjZjLjkxMiAwIDEuMzY4LjQ1NiAxLjM2OCAxLjM2OHYxLjQyNWgxLjQyNmMuNDAzIDAgLjczMS4xMjguOTg3LjM4NC4yOTEuMjU2LjQzOC42MDMuNDM4IDEuMDQxdjEuMzY5aDEuMzY5Yy4zNjUgMCAuNjk0LjE0Ni45ODcuNDM4bC45ODUuOTg3aDIuMjQ2ek03Ljg4NCA1LjA4OGMuNzY4IDAgMS40MjYuMjc0IDEuOTczLjgyMnMuODI0IDEuMjA1LjgyNCAxLjk3M2EyLjY5IDIuNjkgMCAwIDEtLjgyNCAxLjk3MyAyLjY5IDIuNjkgMCAwIDEtMS45NzMuODIyIDIuNjkgMi42OSAwIDAgMS0xLjk3My0uODI0IDIuNjkgMi42OSAwIDAgMS0uODE5LTEuOTcxYzAtLjc2OC4yNzQtMS40MjYuODIyLTEuOTczYTIuNjkgMi42OSAwIDAgMSAxLjk3MS0uODIyeiIvPiYjeGE7PC9zdmc+;" vertex="1" parent="1">
          <mxGeometry x="140" y="170" width="50" height="50" as="geometry" />
        </mxCell>
        <mxCell id="k0j1nxhFFHBIF1v-eqWM-28" value="publicKey" style="shape=image;editableCssRules=.*;verticalLabelPosition=bottom;labelBackgroundColor=default;verticalAlign=top;aspect=fixed;imageAspect=0;image=data:image/svg+xml,PHN2ZyB4bWxucz0iaHR0cDovL3d3dy53My5vcmcvMjAwMC9zdmciIHZpZXdCb3g9Ii0wLjUgLTAuNSAyOC4wMDIgMjgiIGhlaWdodD0iMjgiIHdpZHRoPSIyOC4wMDIiPiYjeGE7CSAgPHN0eWxlIHR5cGU9InRleHQvY3NzIj4mI3hhOwkJLnN0MHtzdG9wLWNvbG9yOiMwMGNlYWM7fSYjeGE7CQkuc3Qxe3N0b3AtY29sb3I6IzA3ODM4Zjt9JiN4YTsJICA8L3N0eWxlPiYjeGE7CTxkZWZzPiYjeGE7CQk8bGluZWFyR3JhZGllbnQgZ3JhZGllbnRVbml0cz0idXNlclNwYWNlT25Vc2UiIHkyPSIyNS4zMSIgeDI9IjIzLjQ1NCIgeTE9IjMuNDc0IiB4MT0iMi4wMzkiIGlkPSJBIj4mI3hhOwkJCTxzdG9wIGNsYXNzPSJzdDAiLz4mI3hhOwkJCTxzdG9wIGNsYXNzPSJzdDEiIG9mZnNldD0iMSIvPiYjeGE7CQk8L2xpbmVhckdyYWRpZW50PiYjeGE7CTwvZGVmcz4mI3hhOwk8cGF0aCBmaWxsPSJ1cmwoI0EpIiBkPSJNMjcuMDYzIDIwLjkyNGMuMjkzLjI5My40MzguNjIxLjQzOC45ODd2NC4xNjVjMCAuOTQ5LS40NzQgMS40MjQtMS40MjYgMS40MjRoLTQuMTYzYy0uMTg2LS4wMDItLjM2OS0uMDQyLS41MzktLjExN3MtLjMyMi0uMTg1LS40NDgtLjMyMWwtLjk4Ny0uOTg1aC0yLjI0NGExLjUzIDEuNTMgMCAwIDEtMS4wNDMtLjM4NGMtLjEyOC0uMTMtLjIyNy0uMjg0LS4yOTMtLjQ1NHMtLjA5Ni0uMzUxLS4wODktLjUzM3YtMS40MjRoLTEuMzdhMS41MyAxLjUzIDAgMCAxLTEuMDQyLS4zODRjLS4xMjgtLjEzLS4yMjgtLjI4NC0uMjk0LS40NTNzLS4wOTctLjM1MS0uMDktLjUzMnYtMS40MjZoLTEuMzdjLS45NSAwLTEuNDI2LS40NzMtMS40MjYtMS40MjRWMTYuODdsLS41NDctLjYwM0g3Ljg4NGMtMS4xMzEgMC0yLjIwOS0uMjE5LTMuMjMyLS42NThhOC40OCA4LjQ4IDAgMCAxLTIuNjg1LTEuODA4Yy0uNzcxLS43Ny0xLjM4Ni0xLjY4Mi0xLjgxMS0yLjY4NUE4LjEyIDguMTIgMCAwIDEtLjUgNy44ODRjMC0xLjE3LjIxOS0yLjI0Ni42NTgtMy4yMzMuNDI1LTEuMDAzIDEuMDM5LTEuOTE0IDEuODA4LTIuNjg1UzMuNjUuNTgyIDQuNjU0LjE1OEE4LjEyIDguMTIgMCAwIDEgNy44ODUtLjVjMS4xNjggMCAyLjI0NC4yMTkgMy4yMzIuNjU4IDEuMDI0LjQzOCAxLjkxOCAxLjA0IDIuNjg2IDEuODA2czEuMzY4IDEuNjY0IDEuODA2IDIuNjg2Yy40MzguOTg3LjY1OSAyLjA2NC42NTkgMy4yMzN2Mi4yNDV6bS0yLjM1NyAxLjUzNEwxMy45MTIgMTEuNjY0YTEuMzYgMS4zNiAwIDAgMS0uMzIxLS40NDdjLS4wNzUtLjE2OS0uMTE1LS4zNTItLjExOC0uNTM4VjcuODg0YzAtLjc2OC0uMTQ2LTEuNDgtLjQzOC0yLjEzOC0uMjgtLjY3Ni0uNjktMS4yOS0xLjIwNy0xLjgwOGE1LjYgNS42IDAgMCAwLTEuODA2LTEuMjA2IDUuMiA1LjIgMCAwIDAtMi4xMzktLjQzOGMtLjc2NiAwLTEuNDk3LjE0Ny0yLjE5Mi40MzhhNS43OCA1Ljc4IDAgMCAwLTEuNzUzIDEuMjA2IDUuNjEgNS42MSAwIDAgMC0xLjIwNSAxLjgwOGMtLjI5My42NTgtLjQzOCAxLjM2OS0uNDM4IDIuMTM4cy4xNDYgMS40OTcuNDM4IDIuMTkyYTUuNzkgNS43OSAwIDAgMCAxLjIwNiAxLjc1NGMuNTEuNTEgMS4wOTQuOTEyIDEuNzU0IDEuMjA1LjY5My4yOTMgMS40MjQuNDM4IDIuMTkyLjQzOGgyLjc5M2MuMzY3IDAgLjY5NC4xNDcuOTg3LjQzOGwxLjQyNCAxLjQyNmMuMTI0LjEyLjIyMi4yNjUuMjg4LjQyNWExLjI3IDEuMjcgMCAwIDEgLjA5Ni41MDR2MS40MjZoMS40MjZjLjkxMiAwIDEuMzY4LjQ1NiAxLjM2OCAxLjM2OHYxLjQyNWgxLjQyNmMuNDAzIDAgLjczMS4xMjguOTg3LjM4NC4yOTEuMjU2LjQzOC42MDMuNDM4IDEuMDQxdjEuMzY5aDEuMzY5Yy4zNjUgMCAuNjk0LjE0Ni45ODcuNDM4bC45ODUuOTg3aDIuMjQ2ek03Ljg4NCA1LjA4OGMuNzY4IDAgMS40MjYuMjc0IDEuOTczLjgyMnMuODI0IDEuMjA1LjgyNCAxLjk3M2EyLjY5IDIuNjkgMCAwIDEtLjgyNCAxLjk3MyAyLjY5IDIuNjkgMCAwIDEtMS45NzMuODIyIDIuNjkgMi42OSAwIDAgMS0xLjk3My0uODI0IDIuNjkgMi42OSAwIDAgMS0uODE5LTEuOTcxYzAtLjc2OC4yNzQtMS40MjYuODIyLTEuOTczYTIuNjkgMi42OSAwIDAgMSAxLjk3MS0uODIyeiIvPiYjeGE7PC9zdmc+;" vertex="1" parent="1">
          <mxGeometry x="265" y="170" width="50" height="50" as="geometry" />
        </mxCell>
        <mxCell id="k0j1nxhFFHBIF1v-eqWM-29" value="publicKey" style="shape=image;editableCssRules=.*;verticalLabelPosition=bottom;labelBackgroundColor=default;verticalAlign=top;aspect=fixed;imageAspect=0;image=data:image/svg+xml,PHN2ZyB4bWxucz0iaHR0cDovL3d3dy53My5vcmcvMjAwMC9zdmciIHZpZXdCb3g9Ii0wLjUgLTAuNSAyOC4wMDIgMjgiIGhlaWdodD0iMjgiIHdpZHRoPSIyOC4wMDIiPiYjeGE7CSAgPHN0eWxlIHR5cGU9InRleHQvY3NzIj4mI3hhOwkJLnN0MHtzdG9wLWNvbG9yOiMwMGNlYWM7fSYjeGE7CQkuc3Qxe3N0b3AtY29sb3I6IzA3ODM4Zjt9JiN4YTsJICA8L3N0eWxlPiYjeGE7CTxkZWZzPiYjeGE7CQk8bGluZWFyR3JhZGllbnQgZ3JhZGllbnRVbml0cz0idXNlclNwYWNlT25Vc2UiIHkyPSIyNS4zMSIgeDI9IjIzLjQ1NCIgeTE9IjMuNDc0IiB4MT0iMi4wMzkiIGlkPSJBIj4mI3hhOwkJCTxzdG9wIGNsYXNzPSJzdDAiLz4mI3hhOwkJCTxzdG9wIGNsYXNzPSJzdDEiIG9mZnNldD0iMSIvPiYjeGE7CQk8L2xpbmVhckdyYWRpZW50PiYjeGE7CTwvZGVmcz4mI3hhOwk8cGF0aCBmaWxsPSJ1cmwoI0EpIiBkPSJNMjcuMDYzIDIwLjkyNGMuMjkzLjI5My40MzguNjIxLjQzOC45ODd2NC4xNjVjMCAuOTQ5LS40NzQgMS40MjQtMS40MjYgMS40MjRoLTQuMTYzYy0uMTg2LS4wMDItLjM2OS0uMDQyLS41MzktLjExN3MtLjMyMi0uMTg1LS40NDgtLjMyMWwtLjk4Ny0uOTg1aC0yLjI0NGExLjUzIDEuNTMgMCAwIDEtMS4wNDMtLjM4NGMtLjEyOC0uMTMtLjIyNy0uMjg0LS4yOTMtLjQ1NHMtLjA5Ni0uMzUxLS4wODktLjUzM3YtMS40MjRoLTEuMzdhMS41MyAxLjUzIDAgMCAxLTEuMDQyLS4zODRjLS4xMjgtLjEzLS4yMjgtLjI4NC0uMjk0LS40NTNzLS4wOTctLjM1MS0uMDktLjUzMnYtMS40MjZoLTEuMzdjLS45NSAwLTEuNDI2LS40NzMtMS40MjYtMS40MjRWMTYuODdsLS41NDctLjYwM0g3Ljg4NGMtMS4xMzEgMC0yLjIwOS0uMjE5LTMuMjMyLS42NThhOC40OCA4LjQ4IDAgMCAxLTIuNjg1LTEuODA4Yy0uNzcxLS43Ny0xLjM4Ni0xLjY4Mi0xLjgxMS0yLjY4NUE4LjEyIDguMTIgMCAwIDEtLjUgNy44ODRjMC0xLjE3LjIxOS0yLjI0Ni42NTgtMy4yMzMuNDI1LTEuMDAzIDEuMDM5LTEuOTE0IDEuODA4LTIuNjg1UzMuNjUuNTgyIDQuNjU0LjE1OEE4LjEyIDguMTIgMCAwIDEgNy44ODUtLjVjMS4xNjggMCAyLjI0NC4yMTkgMy4yMzIuNjU4IDEuMDI0LjQzOCAxLjkxOCAxLjA0IDIuNjg2IDEuODA2czEuMzY4IDEuNjY0IDEuODA2IDIuNjg2Yy40MzguOTg3LjY1OSAyLjA2NC42NTkgMy4yMzN2Mi4yNDV6bS0yLjM1NyAxLjUzNEwxMy45MTIgMTEuNjY0YTEuMzYgMS4zNiAwIDAgMS0uMzIxLS40NDdjLS4wNzUtLjE2OS0uMTE1LS4zNTItLjExOC0uNTM4VjcuODg0YzAtLjc2OC0uMTQ2LTEuNDgtLjQzOC0yLjEzOC0uMjgtLjY3Ni0uNjktMS4yOS0xLjIwNy0xLjgwOGE1LjYgNS42IDAgMCAwLTEuODA2LTEuMjA2IDUuMiA1LjIgMCAwIDAtMi4xMzktLjQzOGMtLjc2NiAwLTEuNDk3LjE0Ny0yLjE5Mi40MzhhNS43OCA1Ljc4IDAgMCAwLTEuNzUzIDEuMjA2IDUuNjEgNS42MSAwIDAgMC0xLjIwNSAxLjgwOGMtLjI5My42NTgtLjQzOCAxLjM2OS0uNDM4IDIuMTM4cy4xNDYgMS40OTcuNDM4IDIuMTkyYTUuNzkgNS43OSAwIDAgMCAxLjIwNiAxLjc1NGMuNTEuNTEgMS4wOTQuOTEyIDEuNzU0IDEuMjA1LjY5My4yOTMgMS40MjQuNDM4IDIuMTkyLjQzOGgyLjc5M2MuMzY3IDAgLjY5NC4xNDcuOTg3LjQzOGwxLjQyNCAxLjQyNmMuMTI0LjEyLjIyMi4yNjUuMjg4LjQyNWExLjI3IDEuMjcgMCAwIDEgLjA5Ni41MDR2MS40MjZoMS40MjZjLjkxMiAwIDEuMzY4LjQ1NiAxLjM2OCAxLjM2OHYxLjQyNWgxLjQyNmMuNDAzIDAgLjczMS4xMjguOTg3LjM4NC4yOTEuMjU2LjQzOC42MDMuNDM4IDEuMDQxdjEuMzY5aDEuMzY5Yy4zNjUgMCAuNjk0LjE0Ni45ODcuNDM4bC45ODUuOTg3aDIuMjQ2ek03Ljg4NCA1LjA4OGMuNzY4IDAgMS40MjYuMjc0IDEuOTczLjgyMnMuODI0IDEuMjA1LjgyNCAxLjk3M2EyLjY5IDIuNjkgMCAwIDEtLjgyNCAxLjk3MyAyLjY5IDIuNjkgMCAwIDEtMS45NzMuODIyIDIuNjkgMi42OSAwIDAgMS0xLjk3My0uODI0IDIuNjkgMi42OSAwIDAgMS0uODE5LTEuOTcxYzAtLjc2OC4yNzQtMS40MjYuODIyLTEuOTczYTIuNjkgMi42OSAwIDAgMSAxLjk3MS0uODIyeiIvPiYjeGE7PC9zdmc+;" vertex="1" parent="1">
          <mxGeometry x="540" y="170" width="50" height="50" as="geometry" />
        </mxCell>
        <mxCell id="k0j1nxhFFHBIF1v-eqWM-30" value="privateKey" style="shape=image;editableCssRules=.*;verticalLabelPosition=bottom;labelBackgroundColor=default;verticalAlign=top;aspect=fixed;imageAspect=0;image=data:image/svg+xml,PHN2ZyB4bWxucz0iaHR0cDovL3d3dy53My5vcmcvMjAwMC9zdmciIHZpZXdCb3g9Ii0wLjUgLTAuNSAyOC4wMDIgMjgiIGhlaWdodD0iMjgiIHdpZHRoPSIyOC4wMDIiPiYjeGE7CSAgPHN0eWxlIHR5cGU9InRleHQvY3NzIj4uc3QwIHsgc3RvcC1jb2xvcjogcmdiKDkxLCAxMTUsIDEzOSk7IH0gLnN0MSB7IHN0b3AtY29sb3I6IHJnYigzNCwgNTMsIDcyKTsgfSA8L3N0eWxlPiYjeGE7CTxkZWZzPiYjeGE7CQk8bGluZWFyR3JhZGllbnQgZ3JhZGllbnRVbml0cz0idXNlclNwYWNlT25Vc2UiIHkyPSIyNS4zMSIgeDI9IjIzLjQ1NCIgeTE9IjMuNDc0IiB4MT0iMi4wMzkiIGlkPSJBIj4mI3hhOwkJCTxzdG9wIGNsYXNzPSJzdDAiLz4mI3hhOwkJCTxzdG9wIGNsYXNzPSJzdDEiIG9mZnNldD0iMSIvPiYjeGE7CQk8L2xpbmVhckdyYWRpZW50PiYjeGE7CTwvZGVmcz4mI3hhOwk8cGF0aCBmaWxsPSJ1cmwoI0EpIiBkPSJNMjcuMDYzIDIwLjkyNGMuMjkzLjI5My40MzguNjIxLjQzOC45ODd2NC4xNjVjMCAuOTQ5LS40NzQgMS40MjQtMS40MjYgMS40MjRoLTQuMTYzYy0uMTg2LS4wMDItLjM2OS0uMDQyLS41MzktLjExN3MtLjMyMi0uMTg1LS40NDgtLjMyMWwtLjk4Ny0uOTg1aC0yLjI0NGExLjUzIDEuNTMgMCAwIDEtMS4wNDMtLjM4NGMtLjEyOC0uMTMtLjIyNy0uMjg0LS4yOTMtLjQ1NHMtLjA5Ni0uMzUxLS4wODktLjUzM3YtMS40MjRoLTEuMzdhMS41MyAxLjUzIDAgMCAxLTEuMDQyLS4zODRjLS4xMjgtLjEzLS4yMjgtLjI4NC0uMjk0LS40NTNzLS4wOTctLjM1MS0uMDktLjUzMnYtMS40MjZoLTEuMzdjLS45NSAwLTEuNDI2LS40NzMtMS40MjYtMS40MjRWMTYuODdsLS41NDctLjYwM0g3Ljg4NGMtMS4xMzEgMC0yLjIwOS0uMjE5LTMuMjMyLS42NThhOC40OCA4LjQ4IDAgMCAxLTIuNjg1LTEuODA4Yy0uNzcxLS43Ny0xLjM4Ni0xLjY4Mi0xLjgxMS0yLjY4NUE4LjEyIDguMTIgMCAwIDEtLjUgNy44ODRjMC0xLjE3LjIxOS0yLjI0Ni42NTgtMy4yMzMuNDI1LTEuMDAzIDEuMDM5LTEuOTE0IDEuODA4LTIuNjg1UzMuNjUuNTgyIDQuNjU0LjE1OEE4LjEyIDguMTIgMCAwIDEgNy44ODUtLjVjMS4xNjggMCAyLjI0NC4yMTkgMy4yMzIuNjU4IDEuMDI0LjQzOCAxLjkxOCAxLjA0IDIuNjg2IDEuODA2czEuMzY4IDEuNjY0IDEuODA2IDIuNjg2Yy40MzguOTg3LjY1OSAyLjA2NC42NTkgMy4yMzN2Mi4yNDV6bS0yLjM1NyAxLjUzNEwxMy45MTIgMTEuNjY0YTEuMzYgMS4zNiAwIDAgMS0uMzIxLS40NDdjLS4wNzUtLjE2OS0uMTE1LS4zNTItLjExOC0uNTM4VjcuODg0YzAtLjc2OC0uMTQ2LTEuNDgtLjQzOC0yLjEzOC0uMjgtLjY3Ni0uNjktMS4yOS0xLjIwNy0xLjgwOGE1LjYgNS42IDAgMCAwLTEuODA2LTEuMjA2IDUuMiA1LjIgMCAwIDAtMi4xMzktLjQzOGMtLjc2NiAwLTEuNDk3LjE0Ny0yLjE5Mi40MzhhNS43OCA1Ljc4IDAgMCAwLTEuNzUzIDEuMjA2IDUuNjEgNS42MSAwIDAgMC0xLjIwNSAxLjgwOGMtLjI5My42NTgtLjQzOCAxLjM2OS0uNDM4IDIuMTM4cy4xNDYgMS40OTcuNDM4IDIuMTkyYTUuNzkgNS43OSAwIDAgMCAxLjIwNiAxLjc1NGMuNTEuNTEgMS4wOTQuOTEyIDEuNzU0IDEuMjA1LjY5My4yOTMgMS40MjQuNDM4IDIuMTkyLjQzOGgyLjc5M2MuMzY3IDAgLjY5NC4xNDcuOTg3LjQzOGwxLjQyNCAxLjQyNmMuMTI0LjEyLjIyMi4yNjUuMjg4LjQyNWExLjI3IDEuMjcgMCAwIDEgLjA5Ni41MDR2MS40MjZoMS40MjZjLjkxMiAwIDEuMzY4LjQ1NiAxLjM2OCAxLjM2OHYxLjQyNWgxLjQyNmMuNDAzIDAgLjczMS4xMjguOTg3LjM4NC4yOTEuMjU2LjQzOC42MDMuNDM4IDEuMDQxdjEuMzY5aDEuMzY5Yy4zNjUgMCAuNjk0LjE0Ni45ODcuNDM4bC45ODUuOTg3aDIuMjQ2ek03Ljg4NCA1LjA4OGMuNzY4IDAgMS40MjYuMjc0IDEuOTczLjgyMnMuODI0IDEuMjA1LjgyNCAxLjk3M2EyLjY5IDIuNjkgMCAwIDEtLjgyNCAxLjk3MyAyLjY5IDIuNjkgMCAwIDEtMS45NzMuODIyIDIuNjkgMi42OSAwIDAgMS0xLjk3My0uODI0IDIuNjkgMi42OSAwIDAgMS0uODE5LTEuOTcxYzAtLjc2OC4yNzQtMS40MjYuODIyLTEuOTczYTIuNjkgMi42OSAwIDAgMSAxLjk3MS0uODIyeiIvPiYjeGE7PC9zdmc+;" vertex="1" parent="1">
          <mxGeometry x="660" y="170" width="50" height="50" as="geometry" />
        </mxCell>
        <mxCell id="k0j1nxhFFHBIF1v-eqWM-32" value="publicKey foo" style="shape=image;editableCssRules=.*;verticalLabelPosition=bottom;labelBackgroundColor=default;verticalAlign=top;aspect=fixed;imageAspect=0;image=data:image/svg+xml,PHN2ZyB4bWxucz0iaHR0cDovL3d3dy53My5vcmcvMjAwMC9zdmciIHZpZXdCb3g9Ii0wLjUgLTAuNSAyOC4wMDIgMjgiIGhlaWdodD0iMjgiIHdpZHRoPSIyOC4wMDIiPiYjeGE7CSAgPHN0eWxlIHR5cGU9InRleHQvY3NzIj4mI3hhOwkJLnN0MHtzdG9wLWNvbG9yOiMwMGNlYWM7fSYjeGE7CQkuc3Qxe3N0b3AtY29sb3I6IzA3ODM4Zjt9JiN4YTsJICA8L3N0eWxlPiYjeGE7CTxkZWZzPiYjeGE7CQk8bGluZWFyR3JhZGllbnQgZ3JhZGllbnRVbml0cz0idXNlclNwYWNlT25Vc2UiIHkyPSIyNS4zMSIgeDI9IjIzLjQ1NCIgeTE9IjMuNDc0IiB4MT0iMi4wMzkiIGlkPSJBIj4mI3hhOwkJCTxzdG9wIGNsYXNzPSJzdDAiLz4mI3hhOwkJCTxzdG9wIGNsYXNzPSJzdDEiIG9mZnNldD0iMSIvPiYjeGE7CQk8L2xpbmVhckdyYWRpZW50PiYjeGE7CTwvZGVmcz4mI3hhOwk8cGF0aCBmaWxsPSJ1cmwoI0EpIiBkPSJNMjcuMDYzIDIwLjkyNGMuMjkzLjI5My40MzguNjIxLjQzOC45ODd2NC4xNjVjMCAuOTQ5LS40NzQgMS40MjQtMS40MjYgMS40MjRoLTQuMTYzYy0uMTg2LS4wMDItLjM2OS0uMDQyLS41MzktLjExN3MtLjMyMi0uMTg1LS40NDgtLjMyMWwtLjk4Ny0uOTg1aC0yLjI0NGExLjUzIDEuNTMgMCAwIDEtMS4wNDMtLjM4NGMtLjEyOC0uMTMtLjIyNy0uMjg0LS4yOTMtLjQ1NHMtLjA5Ni0uMzUxLS4wODktLjUzM3YtMS40MjRoLTEuMzdhMS41MyAxLjUzIDAgMCAxLTEuMDQyLS4zODRjLS4xMjgtLjEzLS4yMjgtLjI4NC0uMjk0LS40NTNzLS4wOTctLjM1MS0uMDktLjUzMnYtMS40MjZoLTEuMzdjLS45NSAwLTEuNDI2LS40NzMtMS40MjYtMS40MjRWMTYuODdsLS41NDctLjYwM0g3Ljg4NGMtMS4xMzEgMC0yLjIwOS0uMjE5LTMuMjMyLS42NThhOC40OCA4LjQ4IDAgMCAxLTIuNjg1LTEuODA4Yy0uNzcxLS43Ny0xLjM4Ni0xLjY4Mi0xLjgxMS0yLjY4NUE4LjEyIDguMTIgMCAwIDEtLjUgNy44ODRjMC0xLjE3LjIxOS0yLjI0Ni42NTgtMy4yMzMuNDI1LTEuMDAzIDEuMDM5LTEuOTE0IDEuODA4LTIuNjg1UzMuNjUuNTgyIDQuNjU0LjE1OEE4LjEyIDguMTIgMCAwIDEgNy44ODUtLjVjMS4xNjggMCAyLjI0NC4yMTkgMy4yMzIuNjU4IDEuMDI0LjQzOCAxLjkxOCAxLjA0IDIuNjg2IDEuODA2czEuMzY4IDEuNjY0IDEuODA2IDIuNjg2Yy40MzguOTg3LjY1OSAyLjA2NC42NTkgMy4yMzN2Mi4yNDV6bS0yLjM1NyAxLjUzNEwxMy45MTIgMTEuNjY0YTEuMzYgMS4zNiAwIDAgMS0uMzIxLS40NDdjLS4wNzUtLjE2OS0uMTE1LS4zNTItLjExOC0uNTM4VjcuODg0YzAtLjc2OC0uMTQ2LTEuNDgtLjQzOC0yLjEzOC0uMjgtLjY3Ni0uNjktMS4yOS0xLjIwNy0xLjgwOGE1LjYgNS42IDAgMCAwLTEuODA2LTEuMjA2IDUuMiA1LjIgMCAwIDAtMi4xMzktLjQzOGMtLjc2NiAwLTEuNDk3LjE0Ny0yLjE5Mi40MzhhNS43OCA1Ljc4IDAgMCAwLTEuNzUzIDEuMjA2IDUuNjEgNS42MSAwIDAgMC0xLjIwNSAxLjgwOGMtLjI5My42NTgtLjQzOCAxLjM2OS0uNDM4IDIuMTM4cy4xNDYgMS40OTcuNDM4IDIuMTkyYTUuNzkgNS43OSAwIDAgMCAxLjIwNiAxLjc1NGMuNTEuNTEgMS4wOTQuOTEyIDEuNzU0IDEuMjA1LjY5My4yOTMgMS40MjQuNDM4IDIuMTkyLjQzOGgyLjc5M2MuMzY3IDAgLjY5NC4xNDcuOTg3LjQzOGwxLjQyNCAxLjQyNmMuMTI0LjEyLjIyMi4yNjUuMjg4LjQyNWExLjI3IDEuMjcgMCAwIDEgLjA5Ni41MDR2MS40MjZoMS40MjZjLjkxMiAwIDEuMzY4LjQ1NiAxLjM2OCAxLjM2OHYxLjQyNWgxLjQyNmMuNDAzIDAgLjczMS4xMjguOTg3LjM4NC4yOTEuMjU2LjQzOC42MDMuNDM4IDEuMDQxdjEuMzY5aDEuMzY5Yy4zNjUgMCAuNjk0LjE0Ni45ODcuNDM4bC45ODUuOTg3aDIuMjQ2ek03Ljg4NCA1LjA4OGMuNzY4IDAgMS40MjYuMjc0IDEuOTczLjgyMnMuODI0IDEuMjA1LjgyNCAxLjk3M2EyLjY5IDIuNjkgMCAwIDEtLjgyNCAxLjk3MyAyLjY5IDIuNjkgMCAwIDEtMS45NzMuODIyIDIuNjkgMi42OSAwIDAgMS0xLjk3My0uODI0IDIuNjkgMi42OSAwIDAgMS0uODE5LTEuOTcxYzAtLjc2OC4yNzQtMS40MjYuODIyLTEuOTczYTIuNjkgMi42OSAwIDAgMSAxLjk3MS0uODIyeiIvPiYjeGE7PC9zdmc+;" vertex="1" parent="1">
          <mxGeometry x="650" y="10" width="50" height="50" as="geometry" />
        </mxCell>
        <mxCell id="k0j1nxhFFHBIF1v-eqWM-33" value="" style="endArrow=classic;html=1;rounded=0;exitX=0.5;exitY=1;exitDx=0;exitDy=0;exitPerimeter=0;entryX=0.5;entryY=0;entryDx=0;entryDy=0;" edge="1" parent="1" source="k0j1nxhFFHBIF1v-eqWM-13" target="k0j1nxhFFHBIF1v-eqWM-20">
          <mxGeometry width="50" height="50" relative="1" as="geometry">
            <mxPoint x="410" y="310" as="sourcePoint" />
            <mxPoint x="460" y="260" as="targetPoint" />
          </mxGeometry>
        </mxCell>
        <mxCell id="k0j1nxhFFHBIF1v-eqWM-34" value="" style="endArrow=classic;html=1;rounded=0;exitX=0.5;exitY=1;exitDx=0;exitDy=0;exitPerimeter=0;entryX=0.5;entryY=0;entryDx=0;entryDy=0;" edge="1" parent="1" source="k0j1nxhFFHBIF1v-eqWM-14" target="k0j1nxhFFHBIF1v-eqWM-19">
          <mxGeometry width="50" height="50" relative="1" as="geometry">
            <mxPoint x="410" y="310" as="sourcePoint" />
            <mxPoint x="460" y="260" as="targetPoint" />
          </mxGeometry>
        </mxCell>
        <mxCell id="k0j1nxhFFHBIF1v-eqWM-35" value="" style="ellipse;whiteSpace=wrap;html=1;aspect=fixed;" vertex="1" parent="1">
          <mxGeometry x="610" y="130" width="10" height="10" as="geometry" />
        </mxCell>
        <mxCell id="k0j1nxhFFHBIF1v-eqWM-36" value="" style="ellipse;whiteSpace=wrap;html=1;aspect=fixed;" vertex="1" parent="1">
          <mxGeometry x="230" y="130" width="10" height="10" as="geometry" />
        </mxCell>
        <mxCell id="k0j1nxhFFHBIF1v-eqWM-37" value="" style="ellipse;whiteSpace=wrap;html=1;aspect=fixed;" vertex="1" parent="1">
          <mxGeometry x="210" y="130" width="10" height="10" as="geometry" />
        </mxCell>
        <mxCell id="k0j1nxhFFHBIF1v-eqWM-40" value="" style="ellipse;whiteSpace=wrap;html=1;aspect=fixed;" vertex="1" parent="1">
          <mxGeometry x="590" y="130" width="10" height="10" as="geometry" />
        </mxCell>
      </root>
    </mxGraphModel>
  </diagram>
</mxfile>
